<?xml version="1.0" standalone="no"?>
<!DOCTYPE svg PUBLIC "-//W3C//DTD SVG 20010904//EN"
 "http://www.w3.org/TR/2001/REC-SVG-20010904/DTD/svg10.dtd">
<svg version="1.0" xmlns="http://www.w3.org/2000/svg"
 width="500.000000pt" height="500.000000pt" viewBox="0 0 500.000000 500.000000"
 preserveAspectRatio="xMidYMid meet">

<g transform="translate(0.000000,500.000000) scale(0.100000,-0.100000)"
fill="#000000" stroke="none">
<path d="M2373 3481 c-11 -12 -34 -65 -52 -118 -40 -118 -50 -248 -32 -399 14
-110 46 -260 67 -310 8 -19 14 -36 14 -40 0 -3 -39 -3 -87 1 -94 7 -263 -12
-361 -41 -97 -28 -214 -108 -294 -202 -91 -105 -74 -144 48 -116 51 12 139 17
329 20 153 3 274 9 295 15 60 20 111 49 104 61 -4 7 -10 5 -16 -6 -5 -9 -14
-16 -20 -16 -7 0 -31 -9 -54 -21 -40 -19 -61 -20 -271 -20 -177 0 -252 -4
-333 -18 -58 -10 -111 -16 -117 -13 -25 8 -12 42 37 101 86 104 214 186 332
215 89 21 272 36 332 26 52 -8 86 -3 86 11 0 6 -6 24 -14 43 -44 106 -83 384
-73 527 7 92 43 220 78 278 31 51 40 42 65 -59 l13 -55 -5 50 c-6 55 -23 96
-41 102 -6 2 -20 -5 -30 -16z"/>
<path d="M2362 3317 c-31 -189 -24 -396 19 -557 25 -94 84 -218 116 -243 13
-10 21 -22 19 -26 -3 -4 4 -7 14 -8 15 -1 21 8 27 35 12 54 5 179 -12 237 -13
45 -14 46 -9 10 23 -149 21 -244 -5 -253 -8 -3 -11 0 -7 7 4 6 -4 16 -19 23
-25 11 -26 13 -8 26 17 13 17 14 -4 8 -16 -5 -23 -2 -28 15 -5 14 -2 25 6 31
10 7 8 8 -7 3 -14 -4 -24 0 -28 10 -3 8 0 15 7 15 7 0 4 5 -6 11 -9 6 -15 14
-12 20 4 5 1 9 -5 9 -6 0 -8 11 -6 25 3 15 0 25 -7 25 -8 0 -8 3 1 9 11 7 11
9 -2 14 -25 10 -20 36 7 31 16 -4 14 -1 -8 10 -16 8 -23 15 -15 15 13 1 13 2
0 11 -12 8 -12 10 5 11 17 1 16 2 -5 9 -25 8 -24 8 5 9 17 1 37 5 44 10 10 7
0 8 -30 5 -32 -3 -39 -2 -24 5 16 8 17 10 3 10 -11 1 -15 8 -13 26 1 14 -2 25
-6 25 -5 0 -9 9 -9 20 0 11 5 20 11 20 5 0 8 4 4 9 -3 5 -1 12 5 16 16 10 12
25 -7 25 -15 0 -16 2 -3 10 12 8 12 10 -5 11 l-20 0 20 9 c11 5 14 9 7 9 -17
1 -11 34 8 43 12 5 12 7 -2 7 -10 1 -18 5 -18 10 0 5 8 12 18 14 16 4 16 5 0
6 -20 1 -25 31 -5 31 8 0 7 4 -3 10 -13 9 -13 10 0 10 12 0 13 2 1 9 -11 7
-11 9 0 14 11 4 11 6 1 6 -8 1 -10 6 -6 13 5 7 7 31 6 53 -1 26 6 7 20 -53 11
-51 23 -91 25 -88 3 3 -2 36 -11 75 -9 38 -16 88 -16 110 0 66 -16 54 -28 -22z"/>
<path d="M2452 3315 c0 -16 2 -22 5 -12 2 9 2 23 0 30 -3 6 -5 -1 -5 -18z"/>
<path d="M2451 3266 c-8 -9 -9 -16 -3 -16 6 0 18 -24 28 -52 9 -29 28 -77 41
-106 13 -29 37 -96 54 -149 27 -91 39 -119 39 -97 0 19 -71 226 -90 264 -11
21 -28 69 -38 105 -16 58 -20 65 -31 51z"/>
<path d="M2421 3124 c0 -11 3 -14 6 -6 3 7 2 16 -1 19 -3 4 -6 -2 -5 -13z"/>
<path d="M2441 3060 c0 -8 4 -22 9 -30 12 -18 12 -2 0 25 -6 13 -9 15 -9 5z"/>
<path d="M3360 3031 c-8 -5 -79 -25 -157 -45 -212 -52 -366 -133 -503 -263
-30 -29 -58 -53 -61 -53 -3 0 -9 34 -12 76 -5 73 -11 93 -22 82 -3 -3 -1 -17
5 -32 5 -15 10 -51 10 -81 0 -30 5 -57 10 -60 6 -4 43 25 83 63 102 98 149
127 364 225 12 5 36 10 52 11 17 1 31 4 31 7 0 5 91 28 135 34 6 1 23 7 38 13
15 7 41 14 58 17 26 5 29 3 29 -22 -1 -60 -68 -165 -173 -271 -48 -49 -85 -75
-162 -113 -55 -27 -107 -49 -116 -49 -9 0 -19 -3 -23 -7 -4 -5 -42 -19 -84
-33 -46 -15 -78 -31 -80 -40 -1 -10 43 -40 133 -89 137 -76 225 -144 225 -175
0 -9 5 -14 10 -11 6 3 10 2 10 -4 0 -5 7 -16 15 -25 27 -27 115 -159 115 -173
0 -7 4 -13 9 -13 14 0 51 -123 41 -134 -6 -6 -36 4 -80 27 -82 43 -93 42 -17
-2 73 -42 103 -48 111 -23 14 43 -45 157 -164 318 -69 92 -128 148 -190 179
-71 35 -210 118 -210 125 0 4 46 22 103 40 128 42 278 117 339 170 57 49 152
174 179 235 27 60 22 99 -11 102 -14 2 -32 -1 -40 -6z"/>
<path d="M2466 2990 c3 -14 11 -32 16 -40 6 -10 7 -7 2 10 -3 14 -11 32 -16
40 -6 10 -7 7 -2 -10z"/>
<path d="M3339 2973 c-1 -5 -1 -15 -1 -23 1 -18 -144 -148 -226 -203 -69 -47
-77 -55 -35 -33 74 37 283 221 283 249 0 16 -19 25 -21 10z"/>
<path d="M3263 2929 c-29 -16 -116 -56 -195 -88 -180 -73 -228 -98 -305 -155
-71 -54 -166 -154 -158 -167 4 -5 0 -6 -8 -3 -9 3 -17 -3 -20 -17 -8 -31 -4
-33 25 -10 14 11 61 33 104 49 44 16 93 37 109 46 36 21 21 16 -64 -19 -35
-14 -70 -24 -78 -21 -8 3 -11 1 -8 -4 3 -6 -3 -10 -14 -10 -20 0 -20 1 -3 18
9 11 20 17 24 15 4 -2 10 6 13 18 5 15 10 18 15 9 5 -8 9 -7 14 5 3 9 3 22 -1
27 -3 6 -1 8 5 4 5 -3 13 0 15 6 4 8 6 7 6 -4 1 -9 6 -20 13 -24 7 -4 8 -3 4
4 -7 12 3 66 12 58 3 -3 11 2 19 12 14 16 14 16 9 -1 -3 -10 -2 -16 3 -12 5 3
12 -1 15 -7 3 -7 2 0 -1 16 -5 26 -4 28 15 24 15 -4 22 0 26 17 5 19 11 23 31
19 19 -3 23 -1 19 11 -4 8 -1 15 5 15 6 0 11 -10 12 -22 1 -18 3 -16 10 10 10
33 29 44 29 17 0 -23 39 0 49 28 8 21 9 21 17 -8 l7 -30 13 35 c7 19 13 29 13
21 1 -11 4 -10 15 4 9 12 20 16 35 12 17 -4 21 -2 17 9 -3 8 -1 14 4 14 5 0
11 -8 13 -17 3 -13 5 -12 6 5 0 13 6 20 11 17 6 -3 10 -2 10 3 0 5 14 8 31 7
24 -2 33 2 36 16 3 10 9 16 14 13 5 -3 9 0 9 6 0 6 5 8 10 5 6 -3 10 -1 10 5
0 6 4 9 8 6 5 -3 16 4 25 15 34 39 19 38 -50 -2z"/>
<path d="M2420 2940 c8 -5 20 -10 25 -10 6 0 3 5 -5 10 -8 5 -19 10 -25 10 -5
0 -3 -5 5 -10z"/>
<path d="M2398 2923 c7 -3 16 -2 19 1 4 3 -2 6 -13 5 -11 0 -14 -3 -6 -6z"/>
<path d="M2492 2925 c0 -5 6 -26 13 -45 7 -19 14 -28 14 -20 0 8 -6 29 -14 45
-7 17 -13 26 -13 20z"/>
<path d="M2521 2824 c0 -11 3 -14 6 -6 3 7 2 16 -1 19 -3 4 -6 -2 -5 -13z"/>
<path d="M3081 2804 c0 -11 3 -14 6 -6 3 7 2 16 -1 19 -3 4 -6 -2 -5 -13z"/>
<path d="M2480 2730 c-8 -5 -10 -10 -5 -10 6 0 17 5 25 10 8 5 11 10 5 10 -5
0 -17 -5 -25 -10z"/>
<path d="M2438 2713 c7 -3 16 -2 19 1 4 3 -2 6 -13 5 -11 0 -14 -3 -6 -6z"/>
<path d="M2861 2704 c0 -11 3 -14 6 -6 3 7 2 16 -1 19 -3 4 -6 -2 -5 -13z"/>
<path d="M2940 2650 c-52 -27 -92 -49 -87 -49 10 -1 187 88 187 94 0 7 5 9
-100 -45z"/>
<path d="M2510 2620 c-9 -6 -10 -10 -3 -10 6 0 15 5 18 10 8 12 4 12 -15 0z"/>
<path d="M2095 2520 c-42 -11 -1 -11 50 -1 34 7 35 9 10 9 -16 0 -43 -4 -60
-8z"/>
<path d="M2345 2520 c54 -11 141 -46 138 -56 -4 -13 -33 -13 -33 -1 0 8 -3 7
-9 -1 -6 -11 -11 -10 -25 3 -15 15 -16 15 -16 -3 0 -25 -47 -37 -53 -13 -4 14
-5 14 -6 -1 -1 -11 -6 -15 -16 -12 -8 4 -15 1 -15 -6 0 -10 -3 -10 -14 -1 -11
10 -15 8 -19 -6 -4 -16 -5 -16 -6 1 -1 20 -1 20 -15 0 -14 -18 -15 -18 -21 11
-11 48 -15 53 -12 14 2 -27 -1 -35 -10 -32 -7 3 -13 0 -13 -6 0 -8 -5 -9 -19
-1 -14 7 -21 6 -24 -3 -3 -6 -6 2 -7 18 -1 17 -4 23 -7 15 -15 -46 -15 -46
-23 -25 -7 17 -9 17 -9 3 -1 -10 -8 -18 -16 -18 -11 0 -15 12 -17 43 l-1 42
-6 -40 c-6 -39 -26 -53 -43 -30 -5 6 -8 5 -8 -2 0 -23 -30 -14 -31 10 l-1 22
-6 -23 c-4 -13 -11 -23 -17 -23 -5 0 -13 10 -17 23 l-6 23 -1 -22 c-1 -13 -4
-23 -8 -24 -5 0 -28 -2 -53 -2 -25 -1 -48 -5 -51 -10 -3 -5 -12 -9 -20 -11 -8
-1 -24 -7 -36 -14 -27 -15 -33 -15 -33 -1 0 9 45 32 230 118 l25 11 -25 -6
c-44 -10 -264 -121 -284 -143 -26 -28 -9 -28 84 4 88 30 200 45 335 45 100 0
327 30 379 50 15 5 26 16 23 23 -5 17 -135 66 -172 66 -26 -1 -25 -2 10 -9z
m-625 -180 c-24 -15 -37 -11 -16 5 11 8 22 12 25 9 3 -3 -1 -9 -9 -14z"/>
<path d="M2015 2500 c-13 -5 -14 -9 -5 -9 8 0 24 4 35 9 13 5 14 9 5 9 -8 0
-24 -4 -35 -9z"/>
<path d="M2292 2470 c0 -14 2 -19 5 -12 2 6 2 18 0 25 -3 6 -5 1 -5 -13z"/>
<path d="M2090 2443 c0 -21 3 -24 9 -14 5 8 7 20 4 28 -8 21 -13 15 -13 -14z"/>
<path d="M2584 2459 c-7 -12 63 -88 111 -121 17 -12 6 0 -22 26 -53 47 -70 75
-35 58 9 -5 25 -8 35 -7 12 2 17 -3 17 -18 0 -16 3 -18 12 -9 19 19 28 14 28
-15 l1 -28 13 24 c11 19 14 21 19 7 4 -9 5 -22 3 -28 -1 -7 -1 -10 2 -5 2 4
13 12 24 18 18 10 20 9 14 -6 -5 -15 -4 -16 9 -5 13 11 14 10 10 -3 -4 -8 -1
-18 6 -23 7 -4 10 -3 6 3 -3 5 0 10 8 10 13 0 13 -3 0 -23 -19 -30 -20 -44 0
-18 9 12 14 14 15 6 0 -7 5 -10 11 -6 7 4 9 0 5 -14 -4 -12 -2 -23 5 -28 8 -4
9 -3 5 4 -8 14 10 52 25 52 6 0 7 -5 3 -12 -4 -7 -3 -8 4 -4 7 4 12 3 12 -3 0
-5 -4 -12 -10 -16 -5 -3 -6 -13 -3 -22 5 -13 9 -12 24 8 17 22 25 16 20 -15
-1 -5 5 -6 14 -3 17 7 20 -4 5 -19 -5 -5 -6 -15 -1 -23 7 -11 11 -9 21 9 10
18 9 21 -1 15 -7 -5 -10 -4 -5 3 4 6 13 9 21 6 12 -5 12 -10 -2 -32 l-17 -27
21 18 c16 14 23 15 29 6 4 -8 3 -10 -4 -5 -8 5 -10 2 -6 -8 3 -9 9 -15 12 -14
20 2 23 -4 11 -19 -10 -14 -8 -13 10 2 l24 20 -5 -26 c-4 -20 -1 -25 15 -25
11 1 21 -6 22 -16 5 -29 -11 -30 -44 -2 -17 14 -31 24 -31 22 0 -10 212 -189
217 -184 21 20 -150 224 -260 312 -83 66 -320 194 -358 194 -11 0 -29 5 -39
10 -13 7 -21 7 -26 -1z m309 -152 c-5 -8 -8 -7 -11 1 -2 7 -9 9 -14 6 -7 -4
-8 -2 -4 4 4 6 13 9 21 6 8 -4 12 -11 8 -17z m272 -237 c-2 -4 10 -19 27 -34
30 -25 28 -33 -6 -20 -9 3 -16 12 -16 20 0 8 -6 14 -14 14 -8 0 -18 5 -21 10
-9 15 4 30 20 24 8 -4 13 -10 10 -14z m80 -90 c27 -30 12 -34 -15 -5 -13 14
-19 25 -13 25 5 0 18 -9 28 -20z"/>
<path d="M2519 2408 c-17 -24 -35 -42 -41 -40 -5 1 -7 -2 -4 -7 4 -5 -16 -52
-44 -104 -27 -51 -50 -98 -50 -103 0 -5 20 27 44 71 87 162 109 195 122 182 3
-2 -2 -12 -11 -21 -9 -9 -13 -16 -8 -16 5 0 9 -9 9 -20 0 -14 -5 -19 -16 -15
-9 3 -8 -1 4 -10 14 -11 16 -15 5 -15 -11 0 -12 -2 0 -9 10 -7 11 -13 2 -30
-7 -11 -8 -21 -4 -22 4 -1 -10 -7 -32 -15 -24 -9 -30 -13 -14 -11 16 2 26 -1
26 -10 0 -7 -5 -13 -10 -13 -5 0 -3 -8 4 -17 12 -15 12 -16 -4 -10 -11 4 -16
3 -12 -4 4 -6 -4 -8 -22 -4 l-28 6 30 -15 c17 -8 24 -15 18 -15 -7 -1 -12 -4
-12 -8 4 -22 -3 -34 -27 -46 -24 -13 -25 -15 -9 -30 9 -10 11 -17 5 -17 -6 0
-8 -5 -4 -11 4 -8 -1 -9 -17 -4 -23 7 -24 7 -4 -9 11 -8 14 -16 7 -16 -6 0
-11 -3 -11 -7 4 -22 -4 -32 -28 -42 -19 -8 -21 -10 -6 -7 15 3 20 0 16 -10 -3
-8 -10 -11 -16 -7 -6 3 -7 1 -3 -5 4 -7 2 -12 -4 -12 -6 0 -8 -4 -5 -10 3 -5
1 -10 -5 -10 -6 0 -9 -4 -5 -10 3 -5 -3 -18 -13 -28 -10 -10 -16 -24 -14 -31
2 -7 0 -16 -6 -20 -6 -3 -13 -18 -16 -33 -5 -29 -24 -68 -33 -68 -8 0 6 105
23 174 8 32 13 60 11 62 -2 3 -12 -26 -21 -63 -21 -83 -33 -243 -19 -243 6 0
13 15 17 33 4 17 45 111 93 207 146 298 172 367 180 493 3 48 3 87 0 87 -4 0
-21 -19 -38 -42z"/>
<path d="M2419 2368 c0 -2 -2 -11 -4 -20 -2 -10 -16 -35 -32 -55 -52 -68 -92
-137 -118 -207 -14 -38 -24 -70 -22 -72 2 -2 16 27 31 66 15 38 32 70 37 70 5
0 8 3 7 8 -4 13 34 82 61 111 25 28 61 83 61 95 0 6 -19 9 -21 4z"/>
<path d="M2620 2338 c-1 -2 -2 -43 -4 -93 -2 -49 -11 -119 -20 -155 -24 -92
-114 -269 -191 -375 -37 -49 -82 -115 -102 -145 -20 -30 -37 -57 -39 -59 -2
-2 -10 2 -18 8 -24 20 -47 101 -53 188 -5 72 -4 83 11 89 13 5 14 9 6 14 -9 6
-10 20 -1 60 6 29 9 55 7 57 -11 11 -31 -121 -30 -202 0 -100 21 -180 55 -211
24 -22 16 -30 109 106 30 45 72 104 94 133 49 66 140 255 161 332 9 33 18 101
22 151 l6 91 41 -51 c47 -57 126 -116 307 -226 184 -112 199 -121 199 -117 0
4 -198 130 -318 201 -36 22 -59 42 -56 48 4 7 2 8 -4 4 -17 -10 -65 29 -118
96 -39 48 -62 68 -64 56z"/>
<path d="M2745 2305 c11 -9 29 -21 40 -26 l20 -10 -20 16 c-11 9 -29 21 -40
26 l-20 10 20 -16z"/>
<path d="M2830 2255 c0 -2 27 -18 60 -35 33 -17 60 -28 60 -25 0 2 -27 18 -60
35 -33 17 -60 28 -60 25z"/>
<path d="M2468 2243 c7 -3 16 -2 19 1 4 3 -2 6 -13 5 -11 0 -14 -3 -6 -6z"/>
<path d="M2430 2200 c-13 -9 -13 -10 0 -9 8 0 24 4 35 9 l20 9 -20 0 c-11 0
-27 -4 -35 -9z"/>
<path d="M2960 2187 c0 -2 19 -17 43 -32 23 -16 37 -22 30 -14 -12 15 -73 53
-73 46z"/>
<path d="M2366 2125 c-9 -26 -7 -32 5 -12 6 10 9 21 6 23 -2 3 -7 -2 -11 -11z"/>
<path d="M2426 2121 c-19 -7 -18 -8 4 -14 13 -3 26 -4 29 -2 2 3 -2 5 -10 5
-11 0 -11 2 1 10 18 11 3 12 -24 1z"/>
<path d="M2336 2044 c-9 -26 -16 -52 -15 -58 0 -6 9 13 20 43 10 30 17 56 15
58 -2 2 -11 -17 -20 -43z"/>
<path d="M2358 2013 c7 -3 16 -2 19 1 4 3 -2 6 -13 5 -11 0 -14 -3 -6 -6z"/>
<path d="M2226 1974 c-4 -14 -5 -28 -3 -31 3 -2 8 8 11 23 4 14 5 28 3 31 -3
2 -8 -8 -11 -23z"/>
</g>
</svg>
